<svg xmlns="http://www.w3.org/2000/svg" width="25.327" height="25"><path d="M25.17 4.498c.551.125-.509.956-.659 1.225-.392.1-.175.531-.467.672-.384.144-.033.656-.234.926s-.246.584-.455.82c-.167.159-.638.349-.417.63.029.072.163.319.179.14.113-.36.684-.379.868-.683 1.251-1.449.646-.231.092.489-.35.2-.267.66-.7.759-.063.106.321.156-.025.414a1.077 1.077 0 00.184.645c2.607.539.609 3.475.45 6.1-.2.668.638 2.041-.284 2.314-5.518 1.294-2.7 5.41-4.25 5.516a19.425 19.425 0 00-4.529-.027c-1.439.175-2.919 1.066-4.283.159-3.729-2.163-8.187-.759-4.967-4.071C3.086 19.58.467 19.998 0 16.856a13.332 13.332 0 001.843-3.258c1.109-2.69-.1-3.035 3.312-4.006 1-.25 1.118.455 1.489-.759 1.347-2.987.221-1.473 2.206-1.435a2.8 2.8 0 002.169-1.222c.634-.379-.092 1-.417 1.089a2.69 2.69 0 002.165-.709c0-.3-.263-.577-.1-.892.225-.3.621-.254.947-.417.559.171.267-.835.834-.873.609-.3 1.46-.311 1.944-.668.108-.379.6-.58.834-.88.046-.087.467-.618.538-.489.179.2-.3.539-.417.736-.313.478-.317 1.074-.734 1.495-.138.228.221 0 .338.068.993-.076.275-1.191.7-1.685a4.9 4.9 0 001.743-1.123c.113-.247.417-.406.555-.622 0-.114.271-.379.417-.285a8.668 8.668 0 01-.993 1.734c-.5.3-1.251 1-.98 1.578.121.812-.6 1.487-1.36 1.8-.563.379-.626 1.1-1.343 1.18 2.377.273 1.193-.482 2.8-1.332 1.126-.379-.042-1.324 1.251-1.639.583-.344 1.259-.444 1.342-1.177a5.29 5.29 0 001.585-1.233c.6-.193 1.56-2.212 1.994-1.768a14.7 14.7 0 01-2.615 3.49c0 .288-.417.379-.455.63.067.269-.133.349-.342.478-1.818 1.206-.279.562-1.209 1.734.417.258.751-.353.634-.7.3-.7 1.147-1.112 1.7-1.612-.242 1.138-1.03.964-1.251 2.633-.242.607-1.018.58-.972 1.385.459.2 1.376.216.98-.417.229-1.036 1.372-1.593 1.939-2.523.555.379-1.31 1.825-1.18 3.138-.175.171.3.243.234.023a2.143 2.143 0 01.609-1.093c.58.159.488-.5.488-.861.5-.675 1.406-1.138 1.935-1.87zM5.455 20.165a7.639 7.639 0 002.607.664c.655-.493-.58-.584-.905-.759A45.972 45.972 0 002.5 18.127c-.375-.121-1.564-1.48-.555-.679 1.443 1.343 3.825 1.089 5.589 1.844.288.175.1-.3-.092-.319-.175-.156-.772-.049-.688-.334s.225-.061.371-.193c.259-.5.963.231 1.326-.106.271-1.4-4.513 0-2.919-5.516.2-.8.209-1.654.363-2.474 0-.163.242-.535-.05-.558-.617.019-3.278.615-3.02 1.328a18.733 18.733 0 01-2.2 5.251c-.521.436-.63.5-.213 1.081.367.474-.088.907.613 1.138.492.93 3.2 1.169 4.417 1.582zm14.31 1.518c.726-1.817-2.628 1.833-3.366 1.825-1.935.315-.35-.5-2.715-1.138-1.043-.357.058-1.518-.8-1.848-2.014-.732-1.468-.068-3.1.607.229.216-.626 1.225-.446.622.279-.459-.5-.083-.6-.379-.163-.072-.3.19-.417.042a11.488 11.488 0 01-1.994-.569c-.559-.353-.784.406-1.038.717-1.785 1.582 2.106 1.2 3.02 1.821-.05-.212.313-.053.242.095.179.095.342-.231.463-.046.342.478.221-.175.467-.129.225-.08.509.148.651-.038.492-.212-.271.5.292.52.321.19-.5.341.2.5.154.03.1-.144.029-.2-.038-.36.638.4.751.47 0 .266.417 0 .588 0 .025-.087-.288-.129-.1-.2s.225.3.417.3c.163-.357-.234-.114.075-.823-.184-.3-.288.5-.742.311-.2-.053-.417.212-.542.027.225-.433.646.121 1-.527.179-.14.788-.254.509.11-.221.235.338.228.2.429s.158.129.259.129c.171 0 .029-.156 0-.224-.108-.224.325 0 .234-.243 0-.876 1.618.231 2.4.129 2.715.038 3.207-1.814 3.912-.835.158-.467-.417-.341-.346-.7-.05-.2.246-.247.2-.03 0 .121 0 .163.146.2-.042-.2.133-.345.071-.554-.117.061-.184.163-.254 0 .121-.121.371-.186.367-.379zm-13.6-10.21c-.065 1.635-1.248 5.167 1.421 5.649.163.042.188 0-.163-.228.125-.034.417-.216.2-.326a2.339 2.339 0 00-.483-1.37c-.863-1.1.384-2.348-.417-3.369-.029-.618 0-.421.455-.622 2.085-1.427-.555-1.741 1.285-2.754 2.115-1.32 0-.315-.834-1.188-.125-.114-.217 0-.192.137s-.221.212-.184.379C6.865 9.025 6.1 10.152 6.16 11.469zm3.6-4.018c-.488.186-.067.3-.309.588s-.709.406-.968.736c-1.109.467.146 1.2-.38 1.863-.213.3-.576.417-.788.725-.417.228-.58.379-.317.759.584.239.588-1.229 1.418-.8.2-.524.813-.857 1.18-1.286.292.315-.934 1.4-.154 1.271.242-.068.129-.171.246-.3a1.624 1.624 0 01.5-.577c.138-.486.767-.8 1.013-1.279.213-.068-.15.615-.217.679-.229.19.092.634-.171.759a5.18 5.18 0 00-.747 1.4c-.058.163-.417.269-.259.455.2.049.388-.341.463-.474.163-.486.767-.44 1.043-.884.113-.091-.033-.182-.042-.285 0-.2.033-.52.2-.63.229-.292 1.456-1.138.551-.212a.739.739 0 00.071.907c.263.171 0 .474.367-.258-.067-.239 1.577-1.328.9-.653-.35.243-.15.759-.526.99-.7.288-.45.838.175.262.367-.573.242-.379.784-.588.288.175.588-.121.7-.379a.736.736 0 00.734-.527c1.551.22.563 3.062 1.668 2.656a.489.489 0 00.513-.425c.15-.292.271.224.133.33-.063.319-1.351 1.692-.617 1.791.329-.626.417-.247.893-.8.192.357-.35.679-.5.926.079.273-.417.5-.334.7.859-.243-.5.808-.455 1.089.209.448.417-.311.634-.311.363.072.184-.319.367-.482 1.126-.558.972-.838.6-1.9.1-.782-.584-.338.321-1.074a.75.75 0 01.475-.759 2.187 2.187 0 01.918-.736 10.181 10.181 0 01-.792 1.248c.446 1.1-.663.478-.417.949.471 1.138.922 1.3 1.343.091a2.187 2.187 0 00.442-2.246c-.075-.281-1.289-2.3-1.489-1.639.113.706-1.013.85-.592 1.556 0 .239-.05.672.279.357.655.47-1.385 1.172-1.251 0 .025-.63.667-.9 1.013-1.32.638-.546-.288-.6 1.047-1.172.188-.3.588-.41.551-.82 0-.512.993-.615 1.093-1.4.079-1.161-.033-.854-.213.046-.279.379-.8.349-1.089.52-.163.307-.279.645-.663.812-.763-.463.834-1.275 1-1.734.163-.167-.225-.266-.125-.478a3.592 3.592 0 011.251-.949c.142-.125.113-.322.217-.47.042-.178.417-.292.3-.459a2.063 2.063 0 01.53-.55c.3-.709 1.439-1.2 1.593-2.034-.809.709-1.456 1.719-2.486 2.117-.325.857-1.205 1.085-2.014 1.559-.092.668-.121 1.074-.813 1.487-.909.228-.722.884-1.31 1.267-1.38-.072-.834.808-1.418 1.559.025.129-.179.072-.184.186s-.184.057-.184.171c-.075.095-.179.121-.246.235-.275.083-1.068.5-1.118.156-.4-.967 1.451-.956 1.51-1.787-.446.076-.53.349-.755-.22.329-.979.559-.709 1.33-1.161.313-.694 1.1-.926 1.543-1.491.763-.615.058-1.2.751-2.03.918-.615.417-.531-.288-.125-1.13.311.175 1.946-1.372 1.98-.371-.091-.655.292-1.038.2-.292.061.075.167-.542.319-.551.2-.538-.565-.158-.728.626-.349 1.868-.03 1.61-1.028-.3.838-2.5.493-2.5 1.366-.079.759-1.08.345-1.355.888.025.341.271.713-.092.971-.459.562-1.451.379-1.839 1.1-.242.228-.117.649-.475.759-.184.482-1.406 1.241-1.443.334-.05-.277.313-.269.384-.467s.279-.349.417-.524-.071-.262.025-.379 0-.266.163-.292c1.368-.911.659-.618-.238 0zm-1.223 7.633c-.2.3.38.565.459.22.083-.85.392-1.518-.279-2.246-.113-.451.559-.3.184-.759-.188-.193 0-.474.067-.675-.284-.061-.2.379-.359.524-.551 1.438-.163-2.546-1.5.823.146.167-.125.379 0 .573s.154.675.442.759c.325.679.576-.25.834-.285a.483.483 0 00.359-.379c.167-.262.234.1.117.228-.509.683.071.546-.309 1.2zm-.055 3.41c.146 0 .15 0 .138-.14zm.688-2.569c-.984-.641-.167 1.692.121 1.954 1.668-.414 3.387-.379 5.03-.975.492-.231 1.864-1.571.538-1.138-1.627 1.176-4.121 1.518-5.689.148zm-.088 2.5c-.158-.068-.254.091-.158.216 1.164-.656 2.878.326 3.9-.44.038-.152-.184-.091-.179-.22-.033-.19.171-.577-.209-.334-1.051.527-2.369.137-3.337.778zm.234-5.9c.184.2-.45.345-.175.577.229.379.367.193.517.451.075 0 .113-.186.217-.224.209-.08 1.56-2.041.742-1.389-.325.425-.7 1.518-1.159.531.15-.379.609-.626.417-1.089-.292.038-.2.258-.488.22-.271.125-.162.705-.071.933zm-.179-1.131c-.058.027-.05.046 0 .1.058-.037.046-.052 0-.1zm2.723 7.508a13.947 13.947 0 00-2.64 0c.463.558.559.577 1.33.569 1.23.319 2.461.527 3.658.88.576.22 3.07-1.518 2.135-1.37-.271.14-.617.057-.867.254 1.164-.019.138.41-.138.148.092-.281-.346-.292-.38-.543-.68.8-.88-.288-1.518.3-.184-.038-.221.178-.388.167s-.309-.038-.417.053c-.567.072-.563-.444-.759-.47zm3.754-3.794c-1.126-.258-1.706 1.62-5.159.417-.621-.224-1.339-1.271-1.122.03a5.612 5.612 0 003.253.816 21.958 21.958 0 003.032-1.263zm-5.726 8.862c.079-.095.246-.379.025-.436-.142.038-.242-.19-.355-.049-.125.219.092.435.33.485zm.646-15.916c.655-.618-.175-.656-.388-.349-.146.121.129.247 0 .379-.038.171-.438.414-.1.5.313-.068.388-.3.48-.539zm2.273 5.334c-.551-.209-1.03-3.073-1.351-1.95-.063 1.279-2.844 3.437-.571 4.018.584.129 1.547.433 2.027.114.546-1.283 1.038-.964-.105-2.182zm-2.56-2.394a.194.194 0 00-.216.057.155.155 0 00.007.2c.079-.063.125-.166.209-.257zm-.142 12.98c0 .095.075.064.138 0-.067-.05-.105-.08-.138 0zm.734.493h.142c0-.065-.092-.046-.142 0zm.342-14.554c.68-.634.417-1.783 1.547-2.041a1.073 1.073 0 00.442-.341c-.025-.379.067-.22.242-.47.6-.262.922-.782 1.589-.971.3 0 .321-.493.613-.33-.459.611-1.059.952-1.447 1.59-.259.057-.2.243-.2.41-.292.19-.371.486-.621.7a1.81 1.81 0 01-.867.345c-.417.319-.692 1.161-1.3 1.112zm.926-3.68c-.346.429-.834.444-.375-.137.355-.353-.038-.823.5-1.138.692-.338 1.109-1.059 1.739-1.548.154.4-.417.664-.509 1-.275.717-.922 1.138-1.343 1.821zm.667-1.305c-.1.292-.98.379-.546.782.279-.6.759-.35.546-.782zm-.546 6.7c.092.569.455 1.487 1.318 1.2.834-.137-.138-.341-.417-.618-.388-.036-.58-.339-.901-.582zm9.309 0c-.492.281-.063 1.138-1.326 1.415a2.471 2.471 0 01-.7 1.089c-.893.118-.834.152-1.055.956-.947.406-.388.463-.726.986-.329.421-.555.216-.417.907.042 1.559-1.722.076-2.127 1.04-.108-.125-.417-.216-.284-.4-.329-.095-.488-.63-.909-.319-.742.156-.7.892 0 .41.3-.455.359.224.108.4a12.018 12.018 0 01-1.076.626c-.509-.156-1.043.353-.25.319.417.1.872-.649 1.205-.414.38.759.988-.5 1.422-.319.2-.061.054-.334.288-.319.163-.023.246-.19.417-.2.188.144-.7.569-.138.759.2.417-.3.042-.442.175-.655.455 1.251-.11 1.18-.353.05-.193.1.133.417-.212.334-.095.621-.459.938-.436.788-.175.834-.922 1.322-1.381.163-.231.442-.076.713-.379.7-.562.138-.379.534-.926-.717-.118-.092.911-1.1.713-.45.061-.834 1.673-1.426.618-.2-.983 1.1-1.138 1.564-1.753.388-.793.484-.379.8-.7a.914.914 0 01.417-.816c.221-.106.117-.554.392-.675.2-.14.088-.455.267-.656.417-.292.559-.5-.046-.167zM13.3 24.539c-.309 0-1.251-.562-.734.023.263.061.505.171.734-.023zm-.35-12.9a.238.238 0 00.288 0 .331.331 0 00-.288 0zm.163-3.582c-.209.353.651-.319.621-.5s.417-.52-.038-.345c-.225.076-.171.433-.325.489-.238.034-.113.254-.259.357zm.033 5.312c.747.884 1.873-.41 2.11-1.093-.1-.038-.317.19-.363.288a7.018 7.018 0 01-1.748.827zm1.668.019c-.517.675-.988 1.377-1.518 2.037-.029.8 2.023-2.109 2.231-2.276-.325-.239-.267-.444-.53-.046-.158.03-.038.235-.184.3zm9.175-2.128c-1.205-.641-1.347-.486-2.064.5-.325.118-.163.546-.388.732a.761.761 0 00-.033 1.138c1.489-1.18.092.379-.113.888-1.518 1.73-.417 2.515-1.852 3.6-.35.281-.976.171-1.4.273-.213-.038-.108.209-.259.2-.417.144-.342.728.154.379-.275-.228.117-.159.279-.171s.455-.379.68-.231a8.293 8.293 0 002.565-2.09c.058-.288.417-.539.551-.759.075-.277.225-.691.546-.732a6.278 6.278 0 01-2.64 3.775c-.217.224-.671.167-.78.482 0 .1-.121.1-.138 0-.25-.247-.417.285-.555.33s-.088-.239-.234-.118-.551.072-.534.3c.1.171.146-.3.417-.106.042.072-.179.243.075.2.254 0-.058.307-.15.19-.154-.133-.275 0-.355.11-.225-.027-.113-.379-.309-.3-.834.721-2.11.759-3.02.979-.138-.171-.242.034-.388-.057-1.456 1.6.53 1.024 1.251 1.95.154.6.6.759 1.059.285a19.772 19.772 0 001.631-1.157c1.868-.994 3.337-2.754 5.464-3.149.8.247-.213-1.73.338-2.656-.158-1.055 1.693-4.553.238-4.773zm-8.979-.744a.074.074 0 00-.05-.057.086.086 0 00-.079.012c-.058.675-1.03.6-1.2 1.2.446.076.667-.554 1.2-.618.092.193-.217.36-.35.474-.676.732.8.072.934.429.05.228-.079.535.067.717 0-.178.2-.524.338-.262.509-.759-.417-1.347-.863-1.9zm-.859-3.528c-.113-.027-.138 0-.184.11.117.03.176 0 .184-.11zm.092 5.441c.092 0 .242.042.229-.08s-.187-.072-.229.08zm1.714 2.369c.876.061.446-1.415.113-1.726-.359.785-1.589 1.464-1.818 2.276a5.114 5.114 0 011.706-.55zm.309 1.43c-.209-.508.463-.945-1.28.524-.446.121-.225.379 0 .577a12.566 12.566 0 011.251-1.1zm-.488-7.994c-.167.512-1.439.713-.617.949.917-.085 1.326-3.071.617-.951zm-.117 2.557c.029.076.038.083.154.049-.175-.379-.455-.941-.884-.516.259.163.6.182.73.467zm.8-6.1c-.384-.083-1.468 0-1.33.5.53-.053.309-.175.521-.379.417.129.417.08.809-.114zm-1.251 2.99c.046.277.538-.057.392-.228-.129-.089-.379.07-.387.222zm1.76 9.106c.488-.884-1.843.152-.6.554.371.213.63-.253.605-.561zm-.538-6.727c-.2.4-.5.3-.242 0 .375-.379.271-1.074.584-1.487.25-.345.6 0 .834-.565.275.1.576-.322.834-.243-.1.448-.434.383-.513.664-.171.66-.93 1.2-1.506 1.631zm.7-1.328c-.138.406.834-.212.559-.429-.091.225-.391.248-.55.423zm1.981 6.7a.238.238 0 00-.287.111.2.2 0 00.1.269c.146.106.526-.433.188-.372zm.4 8.525c-.271-.083.3-.273-.038-.357-.2-.076-.225.338-.38.186-.284-.254-.071.133-.1.266.125 0 .742.129.517-.095zm-.526-6.374c.363.379 1.022-.759.955-1.055-.411-.275-.882.681-.949 1.049zm.063-15.028c.1.042.209-.027.129-.106-.075 0-.1.034-.129.106zm.2 4.659c.15.072.188-.11.1-.2a.464.464 0 00-.1.2zm0-4.871c-.042.121.2.1.1-.076a.546.546 0 00-.1.076zm1.193 12.274c.375-.47-.163-.584-.359.087-.321.379-1.251.637-.179.8a1.781 1.781 0 01.54-.894zm-.509-5.683c.363-.379.621-.379-.038-.535-.417.285-.634.588.038.531zm3.983-2.713c.163-.5-.7.41-.5.789-.184.884-.646.292-.834.732-.309.512-.279 1.184-.734 1.647 0 .11-.175.061-.263.076-.192.36-1.076.66-.738-.027-.042-.2.158-.224.238-.379a1.344 1.344 0 00.492-.451c-.175-.421.788-2.447.092-1.612-.092.451-.417.759-.288 1.2-.346.641-.93.531-1.172.838-.759.543.334 1.138.546 1.757.254.341.5-.44.8-.269 1.31-1.241.609-1.392 1.414-2.386.259 0 .342-.379.417-.562.254-.436.063-.983.509-1.351zm-2.878 8.65c0-.258-.463.114-.263.152a.76.76 0 00.263-.152zm.646-3.987c-.776-.034-.809.717-.722 1.282.146-.759.563-.8 1.159-1.29-.067-.223-.289.016-.434.001zm-.415-1.566c-.2-.072-.179.114-.108.209zm-.146-3.84c.029.061.05.038.1-.023a.047.047 0 00-.083.023zm.238-.133c-.067-.027-.067-.027-.117 0 .038.046.075.046.117 0zm.555 3.49c-.2-.182-.617.307-.584.425.288-.049.555-.125.584-.424zm2.039-5.664c.2-.459.551-.231.279.159-.054.421-.722.592-.638 1.043 0 .379-.417.535-.738.656-.48.288-.609.952-1.159 1.1-.3-.057.2-.425.221-.592a1.258 1.258 0 01.893-1.085c.275-.1.025-.459.229-.626.029-.133.133-.095.254-.1a2.115 2.115 0 00.659-.558zm-1.639 7.273c.234 0 0-.118-.079-.186.551-.9-.1-.068-.371.25.2.1.275-.064.45-.064zm.146-5.312c.05-.027.1-.057.088-.125-.363-.125-.476.463-.088.126zm.175 4.447c-.058.042-.058.072 0 .11.046-.03.046-.06 0-.11zm.175-.417c-.054.03-.042.114 0 .095s.03-.059.001-.095zm.45-4.553c.113-.19-.021-.379.129-.588-.538 0 .038.641-.542.759-.259.212.417.027.417-.156zm-.192 5.718c-.129-.042-.158.137-.083.209.105-.001.212-.171.084-.209zm.835-9.341c.071-.057.071-.061 0-.091a.056.056 0 000 .061z"/></svg>