<svg xmlns="http://www.w3.org/2000/svg" width="21.126" height="25"><path d="M21.126 1.371V25H1.407v-.34h-.282v-.343H.564v-.343H.282v-.343H0V0h1.971v.346h.295v.34h.282v.343h.282V0h1.954v.343h.282v.343h.279v.343h.282V0H7.6v.343h.28v.343h.282v.343h.564v.343h.287v1.383h3.1V0h1.974v.343h.279v.343h.282v.343h.282V0h1.97v.343h.282v.343h.282v.343h.282V0h1.971v.343H20v.343h.282v.343h.279v.34zm-18.86-.342h-.574V.686H1.13v.343h.28v.343h.856zm18.3 1.025h-.843v2.4h-1.976v-2.4H16.9v2.4h-1.97v-2.4h-.846v2.4H8.452v-2.4h-.846v2.4H5.635v-2.4h-.851v2.4H2.817v-2.4H1.692v22.26H8.17v-4.793h.282v-2.054h.282v-1.029h.279v-1.025H9.3v-.343h.272v-.343h.282v-.34h.282v-.346h.561V13.7h1.141v.34h.562v.346h.282v.343h.279v.343h.282v.686h.279v.68h.278v1.371h.282V20.2h.282v4.114h6.2zM4.784 1.029V.686h-.839v.343h.282v.343h.846v-.343zm1.123 8.9h.282v1.7H4.225V9.918H4.5V8.571h.279v-.695h.282v-.343h.282v.343h.287v.695h.282zm1.7-8.9V.686h-.844v.343h.287v.343h.843v-.343zm6.2 0V.686h-.561v.343h.282v.343h.561v-.343zm3.381 0h-.566V.686h-.559v.343h.279v.343h.846zm.841 9.245h.282v1.359h-1.976V9.587h.282V8.219h.283v-.343h.282v-.343h.279v.343h.282v.695h.282zM20 1.029h-.564V.686h-.554v.343h.282v.343h.846z"/></svg>