<svg xmlns="http://www.w3.org/2000/svg" width="21.126" height="25"><path d="M14.705 25l-.3-.686a3.106 3.106 0 00-.089-.187l-.174.107c-.11.07-.229.141-.306.187a.53.53 0 01-.306.07 2.723 2.723 0 01-1.137-.245 1.507 1.507 0 00-.153-.06 1.561 1.561 0 01-.235-.097 2.926 2.926 0 01-.828-.607.59.59 0 01-.116-.174l-.095-.234c-.1-.26-.214-.521-.306-.8a1.036 1.036 0 01.079-.68 1.69 1.69 0 00.058-.2l.015-.057a.926.926 0 01.284-.427c.067-.062.128-.125.193-.187a4.367 4.367 0 01.526-.469 6.066 6.066 0 01.847-.479l.037-.016a3.633 3.633 0 011.819-.284 4.057 4.057 0 01.48.06c.11.016.22.034.327.044a1.466 1.466 0 01.455.1.638.638 0 01.076-.362 1.8 1.8 0 01.691-.482l.1-.049.141-.073c.348-.214.844-.474 1.14-.214.134.1 0 .31 0 .312a.725.725 0 01-.428.284c-.083.021-.165.047-.248.07l-.128.036a.682.682 0 00-.517.565.3.3 0 00.071.28.426.426 0 00.3.137 2.564 2.564 0 01.443.138c.052.018.1.039.159.055a6.088 6.088 0 011.064.466 3.338 3.338 0 01.7.573 2.392 2.392 0 01.6.974.65.65 0 010 .409 2.106 2.106 0 01-.4.734 1.692 1.692 0 01-.633.393l-.055.023c-.5.216-1.006.427-1.507.635a1.627 1.627 0 01-.306.094 4.45 4.45 0 01-1.431.117 2.7 2.7 0 01-.471-.107l-.19-.049-.156-.042-.067-.023zm-.3-1.437l.306.643c.028.057.076.089.186.122l.141.036.2.055a2.888 2.888 0 00.413.1 4.049 4.049 0 001.308-.115 1.5 1.5 0 00.251-.07l.122-.052a3.97 3.97 0 01-1.223.2 2.515 2.515 0 01-1.042-.26.47.47 0 01-.2-.216.57.57 0 00-.043-.07c-.028-.036-.052-.076-.076-.112a1.026 1.026 0 00-.159-.2.233.233 0 00-.174-.055zm-2.069-3.312a3.4 3.4 0 00-.306.2 4.292 4.292 0 00-.489.437c-.064.065-.131.13-.2.193a.662.662 0 00-.208.3v.055a2.139 2.139 0 01-.064.229.836.836 0 00-.079.521c.089.26.2.521.306.781l.095.234a.3.3 0 00.064.094 2.652 2.652 0 00.743.542 1.274 1.274 0 00.177.07c.064.023.128.047.19.076a2.341 2.341 0 00.984.208.229.229 0 00.116-.026l.122-.07a.866.866 0 01-.565-.018 4.263 4.263 0 01-1.3-.635 1.14 1.14 0 01-.394-.5v-.038a3.961 3.961 0 00-.217-.469 1.009 1.009 0 01-.043-.909.365.365 0 00.024-.094.143.143 0 01.015-.078.876.876 0 01.306-.5c.092-.073.174-.151.257-.227a3.758 3.758 0 01.413-.344zm2.445 3.125l.046.036a1.373 1.373 0 01.2.26c.021.034.043.068.067.1a.547.547 0 01.061.1.343.343 0 00.064.091 2.211 2.211 0 00.886.227 4.286 4.286 0 001.73-.427l.434-.182.336-.141a1.872 1.872 0 00.235-.109.387.387 0 00.147-.211c.018-.044.04-.089.061-.13a.542.542 0 00-.034-.612 6.818 6.818 0 00-.553-.69 1.482 1.482 0 00-.4-.3 13.665 13.665 0 00-.917-.411 3.4 3.4 0 00-.55-.193h-.061a.151.151 0 010 .036.524.524 0 01-.278.276.8.8 0 00-.431.521q-.055.143-.119.289a3.722 3.722 0 00-.153.4c-.018.062-.037.125-.049.187a1.056 1.056 0 01.306-.344.627.627 0 01.29-.089.739.739 0 01.715.583.353.353 0 01-.076.219.856.856 0 01-1.128.094.534.534 0 01-.156-.237 1.181 1.181 0 01-.046.245.311.311 0 01-.122.219 1.6 1.6 0 01-.352.182.311.311 0 01-.162.021zm-.41.177a.3.3 0 00-.186.076.709.709 0 01-.177.331c.223-.135.306-.174.373-.161zm-.466-3.482h-.079a2.408 2.408 0 00-1.333.432 3.076 3.076 0 00-.376.331c-.092.081-.18.164-.275.24a.624.624 0 00-.22.341v.06a.5.5 0 01-.04.151.771.771 0 00.04.7 4.834 4.834 0 01.2.521v.034a.884.884 0 00.306.372 3.848 3.848 0 001.186.578.46.46 0 00.342 0 .367.367 0 00.2-.26.29.29 0 01.076-.13.662.662 0 01.452-.174.892.892 0 01.226.034.239.239 0 01-.07-.161 1.429 1.429 0 010-.2v-.044a1.846 1.846 0 01.067-.312c.04-.135.092-.26.141-.4l.095-.26a1.341 1.341 0 00.064-.174 1.427 1.427 0 01.446-.781 2.415 2.415 0 01.382-.279 2.13 2.13 0 01-.232-.031h-.061l-.061-.055a.227.227 0 01-.031-.216.329.329 0 000-.1c-.073-.036-.177-.076-.254-.107a.707.707 0 01-.1-.036 1.29 1.29 0 00-.226-.029l-.29-.018c-.164-.011-.375-.027-.575-.027zm2.14.174a.248.248 0 01.177.083 1.015 1.015 0 00.462.177 3.516 3.516 0 01.636.219 9.576 9.576 0 01.917.422 1.8 1.8 0 01.489.365 6.623 6.623 0 01.578.721.782.782 0 01.052.875.722.722 0 00-.052.107.794.794 0 01-.141.242.722.722 0 00.119-.107 1.867 1.867 0 00.348-.643.446.446 0 000-.26 2.162 2.162 0 00-.529-.864 2.959 2.959 0 00-.63-.521 5.919 5.919 0 00-1.018-.44l-.156-.047a2.653 2.653 0 00-.388-.117.761.761 0 01-.484-.253.554.554 0 01-.127-.471.927.927 0 01.455-.674l-.031.016a1.535 1.535 0 00-.572.383 1.07 1.07 0 00-.04.336c0 .112 0 .169-.07.216-.083.089-.235 0-.348-.065a1.036 1.036 0 00-.4-.1 2.276 2.276 0 01-.352-.049 4.388 4.388 0 00-.437-.055 3.321 3.321 0 00-1.62.24 2.805 2.805 0 01.938-.182q.367 0 .734.029l.284.021a1.511 1.511 0 01.342.052l.107.042a2.324 2.324 0 01.306.138.306.306 0 01.119.346.607.607 0 00.1 0 .057.057 0 01.015-.036l.061-.083.046-.055h.113zm-.235.8l-.174.141a1.165 1.165 0 00-.361.646 1.5 1.5 0 01-.073.2l-.095.26c-.046.125-.095.26-.138.383a2.074 2.074 0 00-.058.279v.044a.347.347 0 000 .1 1.164 1.164 0 00.2-.117c-.018 0 0-.023 0-.042.018-.081.031-.159.046-.24a3.849 3.849 0 01.107-.471 4.527 4.527 0 01.162-.424c.04-.091.079-.182.116-.276a1.183 1.183 0 01.248-.482zm.2 1.3a.81.81 0 00-.238.312.215.215 0 00.079.115.414.414 0 00.306.078.445.445 0 00.306-.135.135.135 0 00.021-.052.438.438 0 00-.391-.333.308.308 0 00-.089.036zm.318-1.51zm-.269-.26zm-.468-.172zm2.048-1.734a2.1 2.1 0 00-.672.26l-.073.039a1.085 1.085 0 01.131-.044l.125-.039.255-.071a.407.407 0 00.238-.146zm-10.17 5.9a2.43 2.43 0 01-.269-.018c-.156-.018-.306-.049-.462-.081s-.306-.062-.477-.081a19.214 19.214 0 00-1.143-.073h-.091c-.275 0-.553-.016-.828 0a2.4 2.4 0 00-.4.057c-.089.018-.385.031-.5-.107a.315.315 0 01-.07-.229.53.53 0 01.024-.193 1.115 1.115 0 00.028-.279 17.721 17.721 0 00-.168-1.482 2.228 2.228 0 00-.269-.654 2.611 2.611 0 00-.556-.781l-.116-.1c-.141-.125-.284-.26-.422-.38a3.979 3.979 0 01-1.015-1.342 9.488 9.488 0 01-.4-1.1c-.073-.26-.125-.521-.177-.781-.034-.167-.07-.336-.11-.5a2.889 2.889 0 01-.028-.9v-.206a3.014 3.014 0 01.394-1.247l.1-.19a4.858 4.858 0 01.306-.521c.116-.164.245-.357.376-.547l.141-.193c.046-.065.1-.133.147-.2.092-.122.183-.242.266-.367a1.251 1.251 0 00.1-.2l.073-.154a3.056 3.056 0 00.348-1.094c.024-.237.037-.458.046-.685v-.3a.992.992 0 010-.167 3.373 3.373 0 00.038-1.12.256.256 0 01.05-.229.351.351 0 01.229-.127.383.383 0 01.268.008.3.3 0 01.173.174 2.3 2.3 0 01.089.289v.045a2.659 2.659 0 01-.061.984c-.021.122-.04.221-.043.281s0 .172 0 .26a3.475 3.475 0 01-.021.471 3.856 3.856 0 01-.437 1.489 10.677 10.677 0 01-.797 1.245 7.191 7.191 0 00-.517.87l-.037.065a5.6 5.6 0 00-.324.713 2.37 2.37 0 00-.113.552 3.268 3.268 0 00-.018.648c.028.26.076.56.153.94v.047a6.633 6.633 0 00.226.875l.034.089a4.273 4.273 0 00.584 1.2 5.48 5.48 0 00.44.487l.052.052a5.986 5.986 0 00.532.5 2.161 2.161 0 01.52.549l.04.062a3.123 3.123 0 01.541 1.271v.078c.018.169.037.336.058.505a2.049 2.049 0 00.029.238c.018.13.04.26.049.4a2.545 2.545 0 010 .307q.134-.006.269 0h.569a.374.374 0 01-.144-.193 49.32 49.32 0 00-.174-.474c-.1-.26-.193-.521-.275-.781a4.609 4.609 0 01-.15-1.182 2 2 0 00-.021-.357 2.539 2.539 0 01-.024-.333 1.517 1.517 0 01.031-.315c.083-.445.168-.893.257-1.338.021-.107.049-.211.073-.315s.058-.234.083-.352.043-.26.061-.4.028-.2.043-.294l.028-.172c.043-.26.086-.521.144-.781.073-.318.165-.656.278-1.042a3.634 3.634 0 01.141-.38c.052-.12.073-.182.1-.26.07-.208.134-.417.2-.625l.073-.289c.073-.234.147-.466.211-.7.034-.128.061-.26.086-.383l.079-.388.15-.7c.031-.135.107-.4.162-.6.034-.122.061-.219.067-.245v-.06a4.22 4.22 0 00.07-.474 2.406 2.406 0 01.431-.9 1.591 1.591 0 00.107-.164 7.205 7.205 0 01.514-.685l.208-.26a.808.808 0 01.052-.076l-.467-.06c-.666-.086-2.785-.19-3.472-.219a5.1 5.1 0 01-1.248-.031c-.131-.026-.278-.31-.241-.482a.257.257 0 01.124-.177.348.348 0 01.236-.044 6.985 6.985 0 01.81.107c.174.034.792.055 1.287.073.44.013.822.026.954.047s.358.031.572.044.339.021.413.029.156.013.235.016a1.673 1.673 0 01.306.023c.278.034.55.078.825.125a.355.355 0 00.095.013.094.094 0 01.031-.065 2.987 2.987 0 01.392-.388 4.044 4.044 0 01.324-.245 2.461 2.461 0 00.611-.544 2.387 2.387 0 01.33-.365l.306-.289c.248-.247.5-.495.755-.734a6.891 6.891 0 01.81-.669 5.817 5.817 0 01.917-.5A1.974 1.974 0 0113.7 3.75a.8.8 0 00.11 0 .269.269 0 01.23.061.184.184 0 01.054.2.387.387 0 01-.339.318.8.8 0 01-.407 0 .6.6 0 00-.449.021 4.282 4.282 0 00-1.067.677c-.376.349-.746.719-1.091 1.065-.11.109-.217.224-.321.338-.144.156-.287.31-.44.458a4.8 4.8 0 01-.391.323l-.2.154c-.15.125-.306.247-.446.378l.116.018a.438.438 0 01.275.125.29.29 0 01.037.26c-.021.083-.046.167-.07.26-.046.159-.092.315-.125.476a.875.875 0 000 .2 1.238 1.238 0 010 .214c-.055.37-.2 1.419-.193 1.588v.13a2.248 2.248 0 00.052.6 4.166 4.166 0 00.287.7l.064.13a.825.825 0 00.162.2c.119.125.217.221.306.318.177.177.361.359.523.549l.107.122a3.72 3.72 0 01.636.9.488.488 0 01.037.112.222.222 0 00.034.094 1.474 1.474 0 01.19.547 3.36 3.36 0 00.055.424c.055.411.113.836.128 1.258a2.917 2.917 0 01-.131.828l-.04.164a5.07 5.07 0 01-.413 1.013 9.74 9.74 0 00-.248.521 4.569 4.569 0 01-.761 1.2l-.086.109a1.234 1.234 0 01-.443.4 1.945 1.945 0 00-.489.375l-.131.125a.7.7 0 00-.266.659c.052.289.1.578.15.867l.07.424a.206.206 0 00.015.039.325.325 0 01-.113.4 2.862 2.862 0 01-.177.156 1.6 1.6 0 01-1.027.333zm-2.971-.549c.183 0 .364 0 .544.013h.092c.382.018.779.034 1.168.076.174.021.345.055.514.086q.213.047.431.076a1.283 1.283 0 001.009-.245 1.75 1.75 0 00.153-.135c.073-.07.073-.07.058-.107a.363.363 0 01-.034-.1l-.073-.43-.141-.857a.949.949 0 01.342-.9l.125-.117a2.181 2.181 0 01.575-.432.993.993 0 00.33-.315 1.342 1.342 0 01.094-.119 4.461 4.461 0 00.718-1.127c.073-.185.165-.362.254-.542a4.781 4.781 0 00.391-.963l.049-.172a2.789 2.789 0 00.122-.76 9.337 9.337 0 00-.125-1.234c-.018-.141-.04-.284-.058-.427a1.164 1.164 0 00-.156-.443.685.685 0 01-.055-.151.649.649 0 00-.028-.081 3.377 3.377 0 00-.593-.833l-.116-.128c-.156-.185-.333-.362-.5-.534-.1-.1-.2-.2-.306-.3a1.237 1.237 0 01-.235-.3l-.061-.125a4.423 4.423 0 01-.306-.739 2.545 2.545 0 01-.061-.659v-.122c0-.214.168-1.445.193-1.625a1.11 1.11 0 000-.174 1.032 1.032 0 01.015-.26c.034-.167.083-.331.128-.495.024-.081.049-.164.07-.245v-.033h-.049a1.224 1.224 0 01-.245-.044l-.33-.06.113-.167.037-.062a.616.616 0 01.116-.154c.147-.135.306-.26.462-.391l.208-.161a3.769 3.769 0 00.364-.3 5.016 5.016 0 00.428-.443 4.174 4.174 0 01.33-.349c.348-.349.718-.719 1.1-1.073a4.135 4.135 0 01.825-.573 4.443 4.443 0 00-.459.294 6.247 6.247 0 00-.783.651c-.257.237-.5.482-.746.726l-.306.292a2.661 2.661 0 00-.306.323 2.655 2.655 0 01-.672.614 5.05 5.05 0 00-.307.233 3.3 3.3 0 00-.358.354.346.346 0 01-.364.174l.2.208.031-.042c.018-.034.095-.107.306-.055s.211.146.2.2a1.828 1.828 0 01-.076.276 1.323 1.323 0 00-.046.141l-.046.146a1.422 1.422 0 00-.067.276 1.91 1.91 0 000 .229 1.314 1.314 0 01-.034.443 4 4 0 00-.146 1.134v.24a1.246 1.246 0 00.11.661 1.993 1.993 0 01.079.2 1.309 1.309 0 00.064.154l.061.138a2.316 2.316 0 00.217.4 1.4 1.4 0 00.229.232c.061.055.122.107.177.164a2.41 2.41 0 01.174.2l.125.151.269.286c.138.143.272.286.4.432a2.754 2.754 0 01.562 1.177 4.352 4.352 0 01.089.544 1.486 1.486 0 00.034.26 3.5 3.5 0 01.031 1.133 4.454 4.454 0 01-.364 1.213c-.1.211-.2.422-.306.635a5.41 5.41 0 01-.651 1.162 3.907 3.907 0 01-.957.893 2.7 2.7 0 00-.575.555.9.9 0 00-.095.747v.073c.046.325.113.672.211 1.094a.339.339 0 01-.18.391.634.634 0 01-.119.065 1.3 1.3 0 00-.128.049 1.034 1.034 0 01-.4.107 5.108 5.108 0 01-.642-.076 10.23 10.23 0 00-.306-.047l-.209-.026c-.281-.036-.572-.076-.856-.091s-.532-.016-.792-.016h-.92v-.284a2.148 2.148 0 000-.281 2.636 2.636 0 00-.049-.383 2.02 2.02 0 00-.031-.237c-.021-.172-.04-.341-.058-.521v-.078a2.872 2.872 0 00-.507-1.167l-.034-.057a1.913 1.913 0 00-.434-.49 6.531 6.531 0 01-.562-.521l-.057-.049a6.1 6.1 0 01-.459-.521 4.433 4.433 0 01-.633-1.268l-.028-.09a7.1 7.1 0 01-.235-.909v-.047a9.243 9.243 0 01-.156-.965 3.526 3.526 0 01.018-.7 2.62 2.62 0 01.1-.607 5.453 5.453 0 01.345-.745l.037-.065a7.726 7.726 0 01.535-.906 10.55 10.55 0 00.776-1.209 3.638 3.638 0 00.41-1.4c0-.151.015-.3.018-.456v-.26a1.947 1.947 0 01.049-.312 2.692 2.692 0 00.064-.88v-.043a2.594 2.594 0 00-.079-.26h-.062a3.639 3.639 0 01-.031 1.252.666.666 0 000 .081v.341a6.1 6.1 0 01-.046.7 3.343 3.343 0 01-.373 1.177 2.998 2.998 0 00-.067.141 1.211 1.211 0 01-.122.24 6.46 6.46 0 01-.272.383l-.147.2-.141.193c-.128.172-.257.346-.37.521s-.2.338-.306.521l-.1.193a2.692 2.692 0 00-.365 1.152l-.015.208a2.667 2.667 0 00.024.833c.04.172.076.341.11.521.052.247.1.505.171.752a10.224 10.224 0 00.388 1.073 3.759 3.759 0 00.945 1.216c.138.128.278.26.416.375l.119.1a2.9 2.9 0 01.611.857 2.526 2.526 0 01.306.729c.092.521.134 1.065.171 1.5a1.365 1.365 0 01-.028.336c0 .057-.018.115-.024.174a.078.078 0 000 .044 1.01 1.01 0 00.156 0 2.666 2.666 0 01.468-.068zm.844-.31h.134c.306.016.6.055.883.091l.211.026.333.049a4.85 4.85 0 00.611.07 1.421 1.421 0 00.235-.073c.052-.023.1-.044.153-.062l.037-.021c.073-.049.079-.068.067-.12-.1-.427-.168-.781-.217-1.114v-.073a1.1 1.1 0 01.153-.943 2.912 2.912 0 01.617-.607 3.625 3.625 0 00.883-.825 5.13 5.13 0 00.611-1.091c.1-.232.2-.448.306-.661a4.213 4.213 0 00.339-1.148 3.274 3.274 0 00-.031-1.042 2.2 2.2 0 00-.034-.26 3.954 3.954 0 00-.083-.521 2.492 2.492 0 00-.5-1.07c-.125-.143-.26-.284-.391-.422l-.275-.292c-.049-.055-.092-.109-.138-.164s-.1-.122-.153-.18-.107-.1-.162-.148a1.617 1.617 0 01-.275-.279 2.488 2.488 0 01-.241-.448l-.061-.133a1.856 1.856 0 01-.07-.177 1.508 1.508 0 00-.07-.172 1.531 1.531 0 01-.134-.781v-.234a4.341 4.341 0 01.175-1.216 1.073 1.073 0 00.034-.372v-.26a1.9 1.9 0 01.076-.323 1.1 1.1 0 00.04-.133.385.385 0 01.043-.128c-.269.359-.633.862-.666.919l-.046.073c-.086.143-.171.286-.254.43l-.028.039a.925.925 0 00-.1.221 3.217 3.217 0 00-.058.336 1.194 1.194 0 01-.031.206c-.021.125-.049.245-.079.367s-.076.292-.116.435l-.1.391q-.061.214-.11.43c-.031.122-.058.26-.086.372s-.061.284-.1.427q-.1.414-.211.828-.064.214-.138.43l-.5 1.562c-.055.167-.11.336-.159.505a.8.8 0 00-.021.122.251.251 0 01-.018.115l-.052.26c-.028.122-.052.245-.076.37a1.337 1.337 0 00-.024.245 2.373 2.373 0 01-.119.648c-.031.107-.061.214-.083.32s-.037.2-.052.3a1.507 1.507 0 01-.043.284l-.028.146a4.206 4.206 0 01-.116.521 2.949 2.949 0 00-.073.987v.315a3.408 3.408 0 00.018.437 7.462 7.462 0 00.171.851 1.629 1.629 0 00.11.307c.031.073.061.146.089.229s.076.24.11.359l.031.1a.275.275 0 01-.138.365zM8.117 8.214l-.122.18c-.046.06-.122.159-.214.26-.174.219-.437.547-.483.638a1.571 1.571 0 01-.128.2 2.124 2.124 0 00-.385.781 4.149 4.149 0 01-.058.5v.06a2.471 2.471 0 01-.07.26c-.055.2-.128.456-.159.588-.052.232-.1.463-.15.7l-.107.383c-.028.133-.052.26-.089.4-.067.237-.138.474-.214.708l-.089.292c-.067.214-.131.424-.2.633-.034.1-.07.19-.107.284s-.1.24-.134.359c-.113.375-.2.706-.272 1.018-.058.26-.1.508-.141.763l-.028.172c-.015.094-.031.193-.043.289-.018.135-.04.26-.064.411s-.055.245-.083.365-.052.2-.073.3c-.089.443-.171.89-.254 1.336a1.091 1.091 0 00-.028.26 1.665 1.665 0 00.021.325 2.357 2.357 0 01.024.367 4.613 4.613 0 00.138 1.12c.083.26.174.521.272.781.058.156.116.315.174.479.024.07.061.06.076.057l.055-.018a.326.326 0 01-.018-.062l-.031-.1c-.034-.117-.07-.234-.107-.352a2.897 2.897 0 00-.086-.208 2.5 2.5 0 01-.116-.323 7.864 7.864 0 01-.174-.877 4.094 4.094 0 01-.018-.471v-.318a3.09 3.09 0 01.083-1.065 4.22 4.22 0 00.11-.5l.024-.148q.028-.135.046-.26c.018-.1.034-.206.052-.31s.058-.227.089-.338a2.221 2.221 0 00.11-.583 1.725 1.725 0 01.031-.292c.024-.122.049-.247.076-.372l.052-.26a.565.565 0 00.015-.1.945.945 0 01.028-.161c.052-.172.107-.344.162-.521l.507-1.562c.046-.141.092-.279.131-.419.076-.26.144-.547.211-.82.034-.141.064-.281.095-.422s.058-.26.086-.375.073-.292.113-.435l.1-.393c.04-.143.076-.289.113-.432s.058-.232.079-.346l.028-.2c.018-.12.034-.24.064-.359a1.11 1.11 0 01.131-.289l.024-.044c.083-.146.171-.289.257-.435l.046-.073c.049-.081.48-.672.737-1.015zm-4.279-.6c.712.031 2.846.135 3.524.221l.593.079v-.023c-.245-.042-.5-.081-.746-.112-.092 0-.183-.016-.272-.021l-.254-.018-.4-.029c-.245-.016-.5-.031-.611-.047s-.52-.031-.917-.044q-.668 0-1.333-.065a6.288 6.288 0 00-.764-.1c-.028.026.015.143.052.172a6.813 6.813 0 001.112-.013zm9.267-3.59a1.125 1.125 0 01.327.049.467.467 0 00.232 0 .065.065 0 00.049-.029h-.076a1.932 1.932 0 00-.682 0 .933.933 0 01.15-.02zm.633 18.39a.248.248 0 01-.183-.062.312.312 0 01-.086-.3.831.831 0 01.685-.565 3.726 3.726 0 01.428-.055c.073 0 .306 0 .361.13.046.19-.214.292-.5.4h-.031a.143.143 0 010 .094c0 .094-.116.154-.306.26l-.037.021a.646.646 0 01-.223.062.86.86 0 01-.113.016zm.376-.622a.5.5 0 00-.327.349h.024a.349.349 0 00.116-.026l.04-.021.1-.06a.146.146 0 01-.015-.169.1.1 0 01.058-.073zm2.751-17.359a2.54 2.54 0 01-.816-.133c-.147-.052-.306-.094-.452-.138l-.312-.094c-.119-.036-.235-.083-.352-.128a.368.368 0 01-.15-.107.247.247 0 00-.055-.055h-.052a1.584 1.584 0 01-.712-.055.47.47 0 01-.287-.26 1.232 1.232 0 01.028-1.116 4.272 4.272 0 01.407-.69A2.613 2.613 0 0115.667.614c.2-.047.413-.076.611-.107l.348-.052h.046a12.782 12.782 0 001.479-.3 4.3 4.3 0 01.884-.151 1.353 1.353 0 011.092.41 1.052 1.052 0 01.147.521v.019a.492.492 0 01.422.159 1.179 1.179 0 01.431.854 1.439 1.439 0 01-.1.4c-.021.057-.043.112-.058.167a1.52 1.52 0 01-.941.9l-.306.133q-.3.144-.611.26c-.584.208-1.064.362-1.51.482a2.88 2.88 0 01-.718.12zm-2.155-.93a.387.387 0 01.33.167 3.059 3.059 0 00.348.135l.306.091c.159.044.306.091.471.143a2.3 2.3 0 001.354.021 15.342 15.342 0 001.486-.476q.29-.109.565-.242l.306-.138a1.2 1.2 0 00.77-.721c.018-.06.043-.122.064-.182a1.2 1.2 0 00.089-.331.929.929 0 00-.345-.664.14.14 0 00-.171-.044l.1.216c.018.039.043.081.064.12a.627.627 0 01.116.521l-.076.229c-.046.125-.095.24-.138.333a.941.941 0 01-.41.409 6.786 6.786 0 01-1.357.588l-.339.12q-.413.14-.841.245a1.952 1.952 0 01-.917-.021l-.787-.208-.226-.062c-.174-.044-.211-.13-.211-.193 0-.141.165-.154.306-.164a1.169 1.169 0 00.15-.016c.211-.044.419-.1.611-.151l.327-.086c.165-.047.33-.091.5-.13.284-.07.611-.148.969-.214a4.131 4.131 0 001.241-.4 1.428 1.428 0 00.575-.476 1.021 1.021 0 00.092-.276.365.365 0 01.037-.156l.049-.161-.089.042-.04-.19a1.989 1.989 0 00-.028-.208.909.909 0 00-.089-.385.993.993 0 00-.8-.3 3.925 3.925 0 00-.807.135c-.177.052-.358.1-.541.138l.165-.037a.75.75 0 00.147-.036 1.73 1.73 0 01.169-.044l.121-.03a5.791 5.791 0 01.611-.112 1.136 1.136 0 01.407.057.339.339 0 01.278.31 1.538 1.538 0 00.055.31c.021.1.034.156.046.234a.938.938 0 01-.352 1.042 2.637 2.637 0 01-1.094.456c-.376.076-.746.164-1.116.26l-.379.091c-.162.036-.324.081-.486.122a7.4 7.4 0 01-1.32.26 3.2 3.2 0 00-.465.057.315.315 0 01-.223-.034.24.24 0 01-.113-.167 2.46 2.46 0 01.024-.75l.116-.224a3.445 3.445 0 01.449-.726 2.189 2.189 0 011.047-.706h-.067a2.319 2.319 0 00-1.36.932 3.809 3.809 0 00-.361.617 1 1 0 00-.034.945.148.148 0 00.1.091 1.125 1.125 0 00.516.035zm1.272.1l.572.148a1.426 1.426 0 00.734.021 8.058 8.058 0 00.807-.232l.342-.122a6.4 6.4 0 001.3-.552.676.676 0 00.306-.279 5.137 5.137 0 00.208-.539v-.013.029a1.678 1.678 0 01-.691.588 4.549 4.549 0 01-1.351.437c-.336.065-.669.141-.951.208-.165.039-.327.083-.489.128l-.33.089zm-1.437-1.04l-.024.049a2.05 2.05 0 00-.028.614c.153-.023.306-.044.452-.055a7.119 7.119 0 001.253-.26c.162-.042.327-.086.492-.125l.379-.091c.373-.091.749-.18 1.128-.26a2.266 2.266 0 00.954-.4.7.7 0 00.245-.8.925.925 0 00-.046-.221 3.037 3.037 0 01-.058-.336.156.156 0 000-.062h-.037a.754.754 0 00-.263-.044q-.287.042-.577.109l-.125.033-.131.036a1.88 1.88 0 01-.2.055l-.454.076c-.425.078-.862.159-1.3.211a1.752 1.752 0 00-1.168.669 3.358 3.358 0 00-.416.672z"/></svg>