<svg xmlns="http://www.w3.org/2000/svg" width="25.104" height="25.104" viewBox="0 0 25.104 25.104"><g transform="translate(-51 -858)"><path d="M12.552,1A11.552,11.552,0,0,0,4.383,20.72,11.552,11.552,0,0,0,20.72,4.383,11.476,11.476,0,0,0,12.552,1m0-1A12.552,12.552,0,1,1,0,12.552,12.552,12.552,0,0,1,12.552,0Z" transform="translate(51 858)" fill="#fff"/><g transform="translate(56.851 864.237)"><path d="M-1603.091-147.937l-3.148,5.254h-3.343l4.917-6.715-4.861-6.322h3.541l3.288,5.2,3.2-5.2h3.287l-4.917,6.658,4.944,6.378h-3.539Z" transform="translate(1609.582 155.72)" fill="#fff"/></g></g></svg>