<svg xmlns="http://www.w3.org/2000/svg" width="53.079" height="59.359"><path data-name="Tracé 356" d="M1.756 39.656a2.313 2.313 0 01-1.73-2.667c1.075-7.7 7.314-9.281 7.578-9.344a2.093 2.093 0 012.465 1.8 2.349 2.349 0 01-1.584 2.765 4.866 4.866 0 00-.945.39c.941 3.337 7.945 25.521 26.722 21.635 8.014-1.66 16.58-8.912 14.348-23.885-1.051-7.058-5.008-14.038-10.331-13.525a26.718 26.718 0 004.177 14.98 2.52 2.52 0 01-.514 3.248 1.915 1.915 0 01-1.188.42 2.015 2.015 0 01-1.7-1c-10.4-16.716-.964-32.732-.868-32.891A1.942 1.942 0 0141.072.96a2.518 2.518 0 01.556 3.237 26.581 26.581 0 00-2.832 7.935c5.855.03 12.165 5.708 13.915 17.445a30.016 30.016 0 01-2.507 17.8 21.212 21.212 0 01-15.185 11.446 25.008 25.008 0 01-5.076.539c-15.587 0-23-16.909-25.472-23.711-.116.381-.4 1.614-.459 2.062a2.064 2.064 0 01-1.93 1.975 1.921 1.921 0 01-.325-.029zm15.27-22.263c0-9.606 2.351-17.392 5.25-17.392s5.25 7.787 5.25 17.392-2.35 17.392-5.25 17.392-5.25-7.784-5.25-17.393z" fill="#070000"/></svg>